<svg width="24" height="25" viewBox="0 0 24 25" fill="none" xmlns="http://www.w3.org/2000/svg">
<path d="M11.9199 9.84717H13.9199V6.84717H16.9199V4.84717H13.9199V1.84717H11.9199V4.84717H8.91992V6.84717H11.9199V9.84717ZM7.91992 18.8472C6.81992 18.8472 5.92992 19.7472 5.92992 20.8472C5.92992 21.9472 6.81992 22.8472 7.91992 22.8472C9.01992 22.8472 9.91992 21.9472 9.91992 20.8472C9.91992 19.7472 9.01992 18.8472 7.91992 18.8472ZM17.9199 18.8472C16.8199 18.8472 15.9299 19.7472 15.9299 20.8472C15.9299 21.9472 16.8199 22.8472 17.9199 22.8472C19.0199 22.8472 19.9199 21.9472 19.9199 20.8472C19.9199 19.7472 19.0199 18.8472 17.9199 18.8472ZM9.01992 13.8472H16.4699C17.2199 13.8472 17.8799 13.4372 18.2199 12.8172L22.0799 5.80717L20.3399 4.84717L16.4699 11.8472H9.44992L5.18992 2.84717H1.91992V4.84717H3.91992L7.51992 12.4372L6.16992 14.8772C5.43992 16.2172 6.39992 17.8472 7.91992 17.8472H19.9199V15.8472H7.91992L9.01992 13.8472Z" fill="#fff"/>
</svg>
