<svg width="24" height="25" viewBox="0 0 24 25" fill="none" xmlns="http://www.w3.org/2000/svg">
<path d="M20 7.34717V17.3472H4V7.34717H20ZM20 5.34717H4C2.9 5.34717 2.01 6.24717 2.01 7.34717L2 17.3472C2 18.4472 2.9 19.3472 4 19.3472H20C21.1 19.3472 22 18.4472 22 17.3472V7.34717C22 6.24717 21.1 5.34717 20 5.34717ZM11 8.34717H13V10.3472H11V8.34717ZM11 11.3472H13V13.3472H11V11.3472ZM8 8.34717H10V10.3472H8V8.34717ZM8 11.3472H10V13.3472H8V11.3472ZM5 11.3472H7V13.3472H5V11.3472ZM5 8.34717H7V10.3472H5V8.34717ZM8 14.3472H16V16.3472H8V14.3472ZM14 11.3472H16V13.3472H14V11.3472ZM14 8.34717H16V10.3472H14V8.34717ZM17 11.3472H19V13.3472H17V11.3472ZM17 8.34717H19V10.3472H17V8.34717Z" fill="black"/>
</svg>
