<svg width="24" height="25" viewBox="0 0 24 25" fill="none" xmlns="http://www.w3.org/2000/svg">
<path d="M12 14.8472C13.66 14.8472 14.99 13.5072 14.99 11.8472L15 5.84717C15 4.18717 13.66 2.84717 12 2.84717C10.34 2.84717 9 4.18717 9 5.84717V11.8472C9 13.5072 10.34 14.8472 12 14.8472ZM10.8 5.74717C10.8 5.08717 11.34 4.54717 12 4.54717C12.66 4.54717 13.2 5.08717 13.2 5.74717L13.19 11.9472C13.19 12.6072 12.66 13.1472 12 13.1472C11.34 13.1472 10.8 12.6072 10.8 11.9472V5.74717ZM17.3 11.8472C17.3 14.8472 14.76 16.9472 12 16.9472C9.24 16.9472 6.7 14.8472 6.7 11.8472H5C5 15.2572 7.72 18.0772 11 18.5672V21.8472H13V18.5672C16.28 18.0872 19 15.2672 19 11.8472H17.3Z" fill="black"/>
</svg>
