<svg width="24" height="25" viewBox="0 0 24 25" fill="none" xmlns="http://www.w3.org/2000/svg">
<path d="M15.7549 14.6021H14.9649L14.6849 14.3321C15.6649 13.192 16.2549 11.7121 16.2549 10.1021C16.2549 6.51205 13.3449 3.60205 9.75488 3.60205C6.16488 3.60205 3.25488 6.51205 3.25488 10.1021C3.25488 13.6921 6.16488 16.6021 9.75488 16.6021C11.3649 16.6021 12.8449 16.0121 13.9849 15.0321L14.2549 15.3121V16.1021L19.2549 21.0921L20.7449 19.6021L15.7549 14.6021ZM9.75488 14.6021C7.26488 14.6021 5.25488 12.5921 5.25488 10.1021C5.25488 7.61205 7.26488 5.60205 9.75488 5.60205C12.2449 5.60205 14.2549 7.61205 14.2549 10.1021C14.2549 12.5921 12.2449 14.6021 9.75488 14.6021Z" fill="black"/>
</svg>
