<svg width="199" height="58" viewBox="0 0 199 58" fill="none" xmlns="http://www.w3.org/2000/svg">
<rect width="199" height="57.7467" rx="11.5493" fill="#00CC66"/>
<path d="M27.2036 18.0459H50.5765C51.5543 18.0459 52.4677 18.9513 52.4677 20.2114V37.5354C52.4677 38.7248 51.4916 39.7009 50.3022 39.7009H27.2036C26.0142 39.7009 25.0381 38.7248 25.0381 37.5354V32.4106C26.6918 32.0757 27.9254 30.6126 27.9254 28.8734C27.9254 27.1376 26.6957 25.674 25.0525 25.3371V20.2114C25.0525 19.0173 26.0189 18.0459 27.2036 18.0459Z" fill="#003366" stroke="#003366" stroke-width="1.44367"/>
<path d="M24.2103 28.8011L20.861 25.4518C20.4568 26.4913 20.2258 27.6318 20.2258 28.8156C20.2258 29.9994 20.4568 31.111 20.8466 32.1504L24.2103 28.8011ZM16.5733 36.4526L18.3923 34.6336C17.4828 32.8867 16.9776 30.9233 16.9776 28.83C16.9776 26.7367 17.4973 24.7589 18.3923 23.0265L16.6599 21.2941C15.2596 23.5173 14.4367 26.1448 14.4367 28.9599C14.4511 31.6885 15.2307 34.2582 16.5733 36.4526Z" fill="#003366"/>
<path d="M61.892 40.3734V17.1245H71.9572C73.8398 17.1245 75.3989 17.4017 76.6347 17.9561C77.8705 18.4989 78.7945 19.2438 79.4066 20.1909C80.0302 21.1264 80.3421 22.1889 80.3421 23.3785C80.3421 24.6605 79.9725 25.7461 79.2333 26.6354C78.5057 27.5247 77.5471 28.1715 76.3575 28.5757C77.1544 28.7836 77.8821 29.1012 78.5404 29.5285C79.1987 29.9558 79.7242 30.5218 80.1169 31.2263C80.5211 31.9192 80.7232 32.7797 80.7232 33.8076C80.7232 34.489 80.5961 35.2108 80.3421 35.9731C80.088 36.7353 79.6433 37.4514 79.0081 38.1212C78.3729 38.7795 77.4894 39.3224 76.3575 39.7497C75.2257 40.1655 73.782 40.3734 72.0265 40.3734H61.892ZM67.4357 35.5226H71.8533C72.7888 35.5226 73.4991 35.3494 73.9842 35.0029C74.4692 34.6449 74.7118 34.1309 74.7118 33.4611C74.7118 32.7912 74.4808 32.2542 74.0188 31.8499C73.5684 31.4457 72.8465 31.2436 71.8533 31.2436H67.4357V35.5226ZM67.4357 21.9233V26.3582H71.7147C72.7772 26.3582 73.5337 26.1561 73.9842 25.7519C74.4346 25.3477 74.6598 24.8222 74.6598 24.1754C74.6598 23.5517 74.4346 23.0205 73.9842 22.5816C73.5453 22.1427 72.8003 21.9233 71.7494 21.9233H67.4357ZM85.3065 40.3734V16.4662H90.8502V40.3734H85.3065ZM100.052 21.1091C99.0009 21.1091 98.1867 20.8434 97.6092 20.3121C97.0433 19.7693 96.7604 19.0071 96.7604 18.0254C96.7604 17.0668 97.0433 16.3045 97.6092 15.7386C98.1867 15.1611 99.0009 14.8724 100.052 14.8724C101.068 14.8724 101.871 15.1611 102.46 15.7386C103.049 16.3045 103.343 17.0668 103.343 18.0254C103.343 19.0071 103.049 19.7693 102.46 20.3121C101.871 20.8434 101.068 21.1091 100.052 21.1091ZM97.2801 40.3734V23.2053H102.824V40.3734H97.2801ZM120.49 40.3734V30.4294C120.49 29.5285 120.27 28.8644 119.832 28.4371C119.393 27.9982 118.861 27.7788 118.238 27.7788C117.603 27.7788 117.019 27.9578 116.488 28.3158C115.957 28.6739 115.529 29.2513 115.206 30.0482C114.894 30.8336 114.738 31.8788 114.738 33.1839H113.058C113.058 30.7354 113.347 28.7432 113.924 27.2071C114.513 25.671 115.31 24.545 116.315 23.8289C117.331 23.1129 118.48 22.7548 119.762 22.7548C121.229 22.7548 122.424 23.084 123.348 23.7423C124.284 24.4006 124.971 25.3072 125.41 26.4622C125.849 27.6171 126.068 28.9395 126.068 30.4294V40.3734H120.49ZM109.195 40.3734V23.3092H114.08L114.738 26.133V40.3734H109.195ZM131.493 40.3734V16.4662H137.036V40.3734H131.493ZM136.343 28.9568L142.233 23.3092H149.631L136.343 34.6045V28.9568ZM143.36 40.3734L136.205 29.4073L141.281 28.004L150.081 40.3734H143.36ZM159.838 40.9277C158.406 40.9277 157.06 40.5581 155.801 39.819C154.543 39.0798 153.52 38.0231 152.735 36.6487C151.961 35.2743 151.574 33.6459 151.574 31.7633C151.574 29.8808 151.961 28.2696 152.735 26.9299C153.509 25.5786 154.525 24.545 155.784 23.8289C157.043 23.1129 158.394 22.7548 159.838 22.7548C161.27 22.7548 162.517 23.0436 163.58 23.621C164.642 24.187 165.497 24.955 166.144 25.9251C166.802 26.8953 167.229 27.9925 167.426 29.2167C167.634 30.4294 167.593 31.6825 167.305 32.976H155.957V30.1695H163.251L162.454 30.6892C162.488 30.285 162.471 29.875 162.402 29.4592C162.344 29.0434 162.223 28.6623 162.038 28.3158C161.853 27.9578 161.588 27.6749 161.241 27.467C160.906 27.2475 160.473 27.1378 159.942 27.1378C159.353 27.1378 158.839 27.2822 158.4 27.5709C157.973 27.8481 157.638 28.2581 157.395 28.8009C157.164 29.3322 157.049 29.9847 157.049 30.7585V32.9414C157.049 33.669 157.153 34.2984 157.361 34.8297C157.568 35.3609 157.875 35.7767 158.279 36.077C158.695 36.3657 159.214 36.5101 159.838 36.5101C160.346 36.5101 160.791 36.4062 161.172 36.1983C161.553 35.9904 161.819 35.6612 161.969 35.2108H167.478C167.305 36.2733 166.877 37.2377 166.196 38.1039C165.526 38.9701 164.648 39.6573 163.563 40.1655C162.488 40.6736 161.247 40.9277 159.838 40.9277ZM178.3 40.9277C177.215 40.9277 176.198 40.7314 175.251 40.3387C174.316 39.946 173.559 39.3339 172.982 38.5024C172.416 37.6593 172.133 36.5794 172.133 35.2628V18.9955H177.711V35.0549C177.711 36.0943 178.225 36.614 179.253 36.614C179.576 36.614 179.917 36.5794 180.275 36.5101C180.645 36.4293 181.072 36.3022 181.557 36.129L182.371 39.9922C181.667 40.2463 180.991 40.4657 180.344 40.6505C179.709 40.8353 179.028 40.9277 178.3 40.9277ZM170.106 26.8953V23.3092H181.592V26.8953H170.106Z" fill="#003366"/>
</svg>
