<svg width="24" height="25" viewBox="0 0 24 25" fill="none" xmlns="http://www.w3.org/2000/svg">
<path d="M19 3.34717H5C3.9 3.34717 3 4.24717 3 5.34717V19.3472C3 20.4472 3.9 21.3472 5 21.3472H19C20.1 21.3472 21 20.4472 21 19.3472V5.34717C21 4.24717 20.1 3.34717 19 3.34717ZM12 6.34717C13.93 6.34717 15.5 7.91717 15.5 9.84717C15.5 11.7772 13.93 13.3472 12 13.3472C10.07 13.3472 8.5 11.7772 8.5 9.84717C8.5 7.91717 10.07 6.34717 12 6.34717ZM19 19.3472H5V19.1172C5 18.4972 5.28 17.9172 5.76 17.5372C7.47 16.1672 9.64 15.3472 12 15.3472C14.36 15.3472 16.53 16.1672 18.24 17.5372C18.72 17.9172 19 18.5072 19 19.1172V19.3472Z" fill="#fff"/>
</svg>
